<?xml version="1.0" standalone="no"?><!DOCTYPE svg PUBLIC "-//W3C//DTD SVG 1.1//EN" "http://www.w3.org/Graphics/SVG/1.1/DTD/svg11.dtd"><svg class="icon" width="200px" height="200.00px" viewBox="0 0 1024 1024" version="1.1" xmlns="http://www.w3.org/2000/svg"><path fill="#333333" d="M112 112h208a48 48 0 1 0 0-96H64a48 48 0 0 0-48 48v256a48 48 0 1 0 96 0V112z m800 0v208a48 48 0 1 0 96 0V64a48 48 0 0 0-48-48H704a48 48 0 1 0 0 96h208zM112 912V704a48 48 0 1 0-96 0v256c0 26.496 21.504 48 48 48h256a48 48 0 1 0 0-96H112z m800 0H704a48 48 0 1 0 0 96h256a48 48 0 0 0 48-48V704a48 48 0 1 0-96 0v208zM30.08 97.92l224 224a48 48 0 0 0 67.84-67.84l-224-224a48 48 0 0 0-67.84 67.84z m896-67.84l-224 224a48 48 0 0 0 67.84 67.84l224-224a48 48 0 0 0-67.84-67.84zM97.92 993.92l224-224a48 48 0 0 0-67.84-67.84l-224 224a48 48 0 0 0 67.84 67.84z m896-67.84l-224-224a48 48 0 0 0-67.84 67.84l224 224a48 48 0 0 0 67.84-67.84z" /></svg>