<?xml version="1.0" standalone="no"?><!DOCTYPE svg PUBLIC "-//W3C//DTD SVG 1.1//EN" "http://www.w3.org/Graphics/SVG/1.1/DTD/svg11.dtd"><svg class="icon" width="200px" height="200.00px" viewBox="0 0 1024 1024" version="1.1" xmlns="http://www.w3.org/2000/svg"><path fill="#333333" d="M938.42 998.147l-287.109-288.08 0 6.83-387.7-387.689 6.84 0L26.31 85.067c-18.56-16.609-18.56-44.93-2.93-60.55 16.6-16.6 42.97-14.649 61.521 1.95l255.86 255.86 265.63-255.86c19.529-17.58 44.92 0 44.92 46.88l0 519.53 345.699 346.68c18.561 16.6 18.561 44.92 1.95 60.54C983.34 1015.728 956.97 1014.748 938.42 998.147L938.42 998.147 938.42 998.147zM129.82 329.208l16.61 0 504.88 504.88 0 123.05c0 41.01-22.46 70.31-45.9 46.87-0.98 0-105.47-100.58-313.48-301.76L129.82 702.248c-32.22 0-58.59-26.36-58.59-58.591L71.23 387.798C71.23 355.567 97.6 329.208 129.82 329.208L129.82 329.208z" /></svg>