<?xml version="1.0" standalone="no"?><!DOCTYPE svg PUBLIC "-//W3C//DTD SVG 1.1//EN" "http://www.w3.org/Graphics/SVG/1.1/DTD/svg11.dtd"><svg class="icon" width="200px" height="200.00px" viewBox="0 0 1024 1024" version="1.1" xmlns="http://www.w3.org/2000/svg"><path fill="#333333" d="M334.01 593.71c-23.85-35.49-37.77-78.11-37.79-123.96 0-23.2-18.94-41.98-42.34-41.98-23.4 0-42.33 18.78-42.33 41.98v0.33c0 70.89 24.22 136.11 64.89 188.05l57.57-64.42zM790.16 427.76c-23.37 0-42.34 18.78-42.34 41.98-0.06 123.65-101.1 223.85-225.8 223.9-32.04-0.01-62.51-6.65-90.11-18.59l-58.14 65.05c32.27 17.38 68.01 29.26 105.91 34.37v101.11H338.56c-23.4 0-42.34 18.81-42.34 41.99 0 23.17 18.94 41.98 42.34 41.98h366.93c23.37 0 42.33-18.81 42.33-41.98 0-23.17-18.97-41.98-42.33-41.98H564.36V774.48c151.4-20.41 268.14-148.73 268.14-304.4v-0.33c0-23.21-18.97-41.99-42.34-41.99zM691.38 455.77v-71.03L482.04 618.98c12.82 3.08 26.21 4.72 39.99 4.72 93.53 0 169.35-75.17 169.35-167.93zM687.88 197.77c-15.89-76.38-84.1-133.83-165.86-133.83-93.53 0-169.35 75.2-169.35 167.93v223.9c0 32.51 9.33 62.86 25.46 88.57l309.75-346.57zM827.43 137.07c-11.64-10.41-29.51-9.4-39.91 2.24L193.11 804.39c-10.4 11.64-9.4 29.51 2.24 39.91a28.151 28.151 0 0 0 18.83 7.19c7.77 0 15.5-3.18 21.09-9.43l594.41-665.07c10.39-11.64 9.39-29.51-2.25-39.92z" /></svg>