<?xml version="1.0" standalone="no"?><!DOCTYPE svg PUBLIC "-//W3C//DTD SVG 1.1//EN" "http://www.w3.org/Graphics/SVG/1.1/DTD/svg11.dtd"><svg class="icon" width="200px" height="200.00px" viewBox="0 0 1024 1024" version="1.1" xmlns="http://www.w3.org/2000/svg"><path fill="#333333" d="M617.792 822.4a99.456 99.456 0 1 1-93.76 132.608H34.176a33.152 33.152 0 0 1-5.952-65.792l5.952-0.512 489.856-0.128c14.08-39.68 51.648-66.176 93.76-66.176z m160.128 66.24l184.768 0.064a33.152 33.152 0 0 1 5.952 65.792l-5.952 0.512h-184.768a99.328 99.328 0 0 0 0-66.368z m-491.712-477.44a99.456 99.456 0 1 1-93.76 132.608H34.176A33.152 33.152 0 0 1 28.224 478.08l5.952-0.512 158.272-0.128c14.08-39.68 51.648-66.176 93.76-66.176zM446.336 477.44l516.352 0.064a33.152 33.152 0 0 1 5.952 65.792l-5.952 0.512H446.336a99.328 99.328 0 0 0 0-66.368zM617.856 0a99.456 99.456 0 1 1-93.824 132.672H34.176a33.152 33.152 0 0 1-5.952-65.792l5.952-0.576 489.856-0.128C538.112 26.496 575.68 0 617.792 0z m160.064 66.24l184.768 0.064a33.152 33.152 0 0 1 5.952 65.792l-5.952 0.576h-184.768a99.328 99.328 0 0 0 0-66.432z" /></svg>