<?xml version="1.0" standalone="no"?><!DOCTYPE svg PUBLIC "-//W3C//DTD SVG 1.1//EN" "http://www.w3.org/Graphics/SVG/1.1/DTD/svg11.dtd"><svg class="icon" width="200px" height="199.42px" viewBox="0 0 1027 1024" version="1.1" xmlns="http://www.w3.org/2000/svg"><path fill="#333333" d="M614.4 38.4c19.2 6.4 25.6 19.2 25.6 38.4v851.2c0 19.2-6.4 32-25.6 38.4-6.4 0-12.8 6.4-19.2 6.4-6.4 0-19.2 0-25.6-6.4l-332.8-249.6h-192c-25.6 0-44.8-19.2-44.8-44.8V332.8c0-25.6 19.2-44.8 44.8-44.8h198.4L576 38.4c6.4-6.4 25.6-6.4 38.4 0zM780.8 320c102.4 102.4 102.4 262.4 0 364.8l-32 32-57.6-57.6 32-32c64-64 64-172.8 0-243.2l-32-32 57.6-57.6 32 25.6zM870.4 166.4l32 32c166.4 166.4 166.4 435.2 0 601.6l-32 32-57.6-57.6 32-32c134.4-134.4 134.4-352 0-480l-32-32 57.6-64z" /></svg>