<?xml version="1.0" standalone="no"?><!DOCTYPE svg PUBLIC "-//W3C//DTD SVG 1.1//EN" "http://www.w3.org/Graphics/SVG/1.1/DTD/svg11.dtd"><svg class="icon" width="200px" height="200.00px" viewBox="0 0 1024 1024" version="1.1" xmlns="http://www.w3.org/2000/svg"><path fill="#333333" d="M510.059 669.736c106.379 0 192.91-86.589 192.91-192.971V256.297c0-106.318-86.531-192.907-192.91-192.907-106.377 0-192.908 86.589-192.908 192.907v220.469c-0.001 106.381 86.531 192.97 192.908 192.97z"  /><path fill="#333333" d="M771.016 462.14v14.626c0 143.862-117.039 260.959-260.957 260.959-143.915 0-260.955-117.097-260.955-260.959V462.14h-84.377v14.626c0 173.578 132.006 321.464 303.086 342.557v55.797H393.7c-2.267 0-4.426 0.23-6.688 0.627-19.45 3.231-33.57 19.901-33.57 39.581v4.817c0 19.621 14.06 36.292 33.68 39.639 2.153 0.339 4.313 0.621 6.579 0.621h232.718c2.213 0 4.422-0.282 6.748-0.678 19.394-3.29 33.512-19.961 33.512-39.582v-4.817c0-19.68-14.178-36.35-33.684-39.639-2.154-0.339-4.363-0.569-6.576-0.569h-74.172v-55.797c171.078-21.093 303.146-168.979 303.146-342.557V462.14h-84.377z"  /></svg>